<svg width="743" height="144" viewBox="0 0 743 144" fill="none" xmlns="http://www.w3.org/2000/svg">
<rect width="743" height="143" fill="white"/>
<g clip-path="url(#clip0_3_8)">
<path d="M71.2088 141.613C109.932 141.613 141.324 110.221 141.324 71.4978C141.324 32.7744 109.932 1.38281 71.2088 1.38281C32.4853 1.38281 1.09375 32.7744 1.09375 71.4978C1.09375 110.221 32.4853 141.613 71.2088 141.613Z" fill="#FEFEFE"/>
<path fill-rule="evenodd" clip-rule="evenodd" d="M71.4995 0C110.988 0 142.999 32.0109 142.999 71.4995C142.999 110.988 110.988 142.999 71.4995 142.999C32.0109 142.999 0 110.988 0 71.4995C0 32.0109 32.0109 0 71.4995 0ZM70.7772 3.69872C70.4428 3.69872 70.1083 3.7054 69.7739 3.71209C32.8002 4.24717 2.96309 34.4121 2.96309 71.5061C2.96309 108.647 32.8672 138.832 69.901 139.3C51.5881 138.839 36.8735 123.83 36.8735 105.41C36.8735 86.6956 52.063 71.5061 70.7772 71.5061C89.4914 71.5061 104.681 56.3167 104.681 37.6024C104.681 18.8882 89.4914 3.69877 70.7772 3.69877V3.69872Z" fill="black"/>
<path fill-rule="evenodd" clip-rule="evenodd" d="M60.0781 44.2707V18.9951C60.0781 17.8915 60.4794 16.9351 61.2887 16.1325C62.0914 15.3299 63.0478 14.9219 64.1581 14.9219H77.3343C78.4245 14.9219 79.3676 15.3232 80.1635 16.1325C80.9594 16.9351 81.3541 17.8915 81.3541 18.9951V44.2707C81.3541 45.3944 80.9528 46.3508 80.1635 47.1467C79.3676 47.9427 78.4045 48.3373 77.2808 48.3373H64.1581C63.021 48.3373 62.0512 47.9427 61.262 47.1467C60.4727 46.3508 60.0848 45.3944 60.0848 44.2707H60.0781H60.0781ZM77.1805 44.1168V19.2024H64.3053V44.1168H77.1805Z" fill="black"/>
<path fill-rule="evenodd" clip-rule="evenodd" d="M64.8881 120.682H71.3759V95.7673H64.9951C64.4065 95.7673 63.9116 95.5599 63.4969 95.1519C63.0822 94.7439 62.8815 94.2423 62.8815 93.6537C62.8815 93.0718 63.0889 92.5702 63.4969 92.1622C63.9049 91.7542 64.4065 91.5469 64.9951 91.5469H75.6029V120.688H79.83V111.893C79.83 111.325 80.0374 110.83 80.4454 110.408C80.8534 109.987 81.355 109.78 81.9369 109.78C82.5255 109.78 83.0271 109.987 83.4351 110.395C83.8431 110.81 84.0504 111.305 84.0504 111.893V122.802C84.0504 123.391 83.8431 123.892 83.4351 124.307C83.0271 124.715 82.5322 124.916 81.9369 124.916H64.8881C64.2995 124.916 63.8046 124.702 63.3966 124.28C62.9819 123.852 62.7812 123.344 62.7812 122.755C62.7812 122.187 62.9886 121.698 63.3966 121.29C63.8046 120.889 64.3062 120.688 64.8881 120.688V120.682L64.8881 120.682Z" fill="white"/>
</g>
<path d="M180.912 120.024C176.987 120.024 173.637 119.149 170.864 117.4C168.133 115.608 166.043 113.176 164.592 110.104C163.184 107.032 162.48 103.555 162.48 99.672V44.248C162.48 40.408 163.205 36.952 164.656 33.88C166.149 30.808 168.283 28.376 171.056 26.584C173.829 24.792 177.115 23.896 180.912 23.896C183.771 23.896 186.331 24.4293 188.592 25.496C190.853 26.5627 192.773 28.0347 194.352 29.912C195.973 31.7467 197.211 33.9013 198.064 36.376C198.917 38.808 199.344 41.432 199.344 44.248V57.176H186.416V44.248C186.416 42.2853 186.011 40.6427 185.2 39.32C184.389 37.9973 183.045 37.336 181.168 37.336C179.461 37.336 178.224 38.0187 177.456 39.384C176.688 40.7493 176.304 42.3707 176.304 44.248V99.672C176.304 101.549 176.709 103.171 177.52 104.536C178.373 105.901 179.589 106.584 181.168 106.584C183.088 106.584 184.432 105.923 185.2 104.6C186.011 103.277 186.416 101.635 186.416 99.672V86.744H199.344V99.672C199.344 103.512 198.597 106.968 197.104 110.04C195.611 113.112 193.477 115.544 190.704 117.336C187.973 119.128 184.709 120.024 180.912 120.024ZM223.011 119.896C217.848 119.896 213.795 118.168 210.851 114.712C207.907 111.213 206.435 106.797 206.435 101.464V66.392C206.435 61.0587 207.907 56.664 210.851 53.208C213.795 49.7093 217.848 47.96 223.011 47.96C228.131 47.96 232.163 49.7093 235.107 53.208C238.094 56.664 239.587 61.0587 239.587 66.392V101.464C239.587 106.797 238.094 111.213 235.107 114.712C232.163 118.168 228.131 119.896 223.011 119.896ZM223.011 108.632C224.675 108.632 225.827 107.971 226.467 106.648C227.107 105.283 227.427 103.555 227.427 101.464V66.392C227.427 64.2587 227.107 62.5307 226.467 61.208C225.827 59.8853 224.675 59.224 223.011 59.224C221.347 59.224 220.195 59.8853 219.555 61.208C218.915 62.5307 218.595 64.2587 218.595 66.392V101.464C218.595 103.597 218.915 105.325 219.555 106.648C220.195 107.971 221.347 108.632 223.011 108.632ZM254.669 120.024C252.536 120.024 250.722 119.363 249.229 118.04C247.736 116.717 246.605 115.011 245.837 112.92C245.069 110.787 244.685 108.589 244.685 106.328V61.656C244.685 59.3947 245.048 57.2187 245.773 55.128C246.541 53.0373 247.672 51.3307 249.165 50.008C250.658 48.6427 252.493 47.96 254.669 47.96C256.29 47.96 257.997 48.5147 259.789 49.624C261.581 50.7333 263.288 52.056 264.909 53.592V24.92H277.837V119H264.909V114.392C263.202 115.885 261.517 117.208 259.853 118.36C258.189 119.469 256.461 120.024 254.669 120.024ZM260.813 107.864C261.794 107.864 262.712 107.459 263.565 106.648C264.461 105.837 264.909 104.835 264.909 103.64V64.344C264.909 63.32 264.461 62.36 263.565 61.464C262.712 60.568 261.794 60.12 260.813 60.12C259.874 60.12 259.106 60.5253 258.509 61.336C257.912 62.104 257.613 63.1067 257.613 64.344V103.64C257.613 104.835 257.912 105.837 258.509 106.648C259.106 107.459 259.874 107.864 260.813 107.864ZM302.325 120.024C297.162 120.024 293.088 118.253 290.101 114.712C287.157 111.128 285.685 106.755 285.685 101.592V66.392C285.685 60.9307 287.157 56.4933 290.101 53.08C293.045 49.6667 297.162 47.96 302.453 47.96C305.909 47.96 308.874 48.7493 311.349 50.328C313.866 51.9067 315.786 54.0613 317.109 56.792C318.432 59.48 319.093 62.552 319.093 66.008V86.36H297.717V101.592C297.717 103.341 298.101 104.963 298.869 106.456C299.68 107.907 300.874 108.632 302.453 108.632C304.117 108.632 305.29 107.949 305.973 106.584C306.698 105.219 307.061 103.555 307.061 101.592V93.912H319.093V101.976C319.093 107.395 317.621 111.768 314.677 115.096C311.776 118.381 307.658 120.024 302.325 120.024ZM297.717 76.248H307.061V66.392C307.061 64.472 306.72 62.808 306.037 61.4C305.397 59.9493 304.202 59.224 302.453 59.224C300.832 59.224 299.637 59.9707 298.869 61.464C298.101 62.9147 297.717 64.5573 297.717 66.392V76.248ZM324.575 119V48.984H337.503V56.792C337.759 55.0853 338.548 53.5707 339.871 52.248C341.194 50.9253 342.794 49.88 344.671 49.112C346.591 48.344 348.511 47.96 350.431 47.96V62.296C349.876 62.0827 349.279 61.9547 348.639 61.912C348.042 61.8267 347.444 61.784 346.847 61.784C344.031 61.784 341.77 62.552 340.063 64.088C338.356 65.624 337.503 67.7147 337.503 70.36V119H324.575ZM356.87 119V24.92H370.95C375.387 24.92 379.142 25.6453 382.214 27.096C385.286 28.5467 387.761 31.0213 389.638 34.52C391.515 38.0187 392.859 42.8187 393.67 48.92C394.523 55.0213 394.95 62.7227 394.95 72.024C394.95 81.368 394.523 89.0907 393.67 95.192C392.859 101.251 391.515 106.029 389.638 109.528C387.761 112.984 385.286 115.437 382.214 116.888C379.142 118.296 375.387 119 370.95 119H356.87ZM370.694 105.176C374.107 105.176 376.518 103.832 377.926 101.144C379.334 98.456 380.187 94.616 380.486 89.624C380.785 84.632 380.934 78.7013 380.934 71.832C380.934 64.8773 380.785 58.9467 380.486 54.04C380.187 49.0907 379.313 45.3147 377.862 42.712C376.454 40.0667 374.065 38.744 370.694 38.744V105.176ZM418.511 119.896C413.348 119.896 409.295 118.168 406.351 114.712C403.407 111.213 401.935 106.797 401.935 101.464V66.392C401.935 61.0587 403.407 56.664 406.351 53.208C409.295 49.7093 413.348 47.96 418.511 47.96C423.631 47.96 427.663 49.7093 430.607 53.208C433.594 56.664 435.087 61.0587 435.087 66.392V101.464C435.087 106.797 433.594 111.213 430.607 114.712C427.663 118.168 423.631 119.896 418.511 119.896ZM418.511 108.632C420.175 108.632 421.327 107.971 421.967 106.648C422.607 105.283 422.927 103.555 422.927 101.464V66.392C422.927 64.2587 422.607 62.5307 421.967 61.208C421.327 59.8853 420.175 59.224 418.511 59.224C416.847 59.224 415.695 59.8853 415.055 61.208C414.415 62.5307 414.095 64.2587 414.095 66.392V101.464C414.095 103.597 414.415 105.325 415.055 106.648C415.695 107.971 416.847 108.632 418.511 108.632ZM440.441 143.064C439.246 143.064 438.158 142.979 437.177 142.808C436.196 142.68 435.406 142.467 434.809 142.168V130.264C435.065 130.435 435.556 130.584 436.281 130.712C437.006 130.84 437.71 130.904 438.393 130.904C439.716 130.904 440.654 130.413 441.209 129.432C441.764 128.451 442.084 127.171 442.169 125.592C442.297 124.013 442.361 122.371 442.361 120.664V48.984H455.289V120.792C455.289 125.187 454.884 129.048 454.073 132.376C453.305 135.747 451.854 138.371 449.721 140.248C447.588 142.125 444.494 143.064 440.441 143.064ZM442.361 37.848V24.92H455.289V37.848H442.361ZM478.261 119.896C473.098 119.896 469.045 118.168 466.101 114.712C463.157 111.213 461.685 106.797 461.685 101.464V66.392C461.685 61.0587 463.157 56.664 466.101 53.208C469.045 49.7093 473.098 47.96 478.261 47.96C483.381 47.96 487.413 49.7093 490.357 53.208C493.344 56.664 494.837 61.0587 494.837 66.392V101.464C494.837 106.797 493.344 111.213 490.357 114.712C487.413 118.168 483.381 119.896 478.261 119.896ZM478.261 108.632C479.925 108.632 481.077 107.971 481.717 106.648C482.357 105.283 482.677 103.555 482.677 101.464V66.392C482.677 64.2587 482.357 62.5307 481.717 61.208C481.077 59.8853 479.925 59.224 478.261 59.224C476.597 59.224 475.445 59.8853 474.805 61.208C474.165 62.5307 473.845 64.2587 473.845 66.392V101.464C473.845 103.597 474.165 105.325 474.805 106.648C475.445 107.971 476.597 108.632 478.261 108.632Z" fill="black"/>
<path d="M518.12 119V24.92H532.2C536.979 24.92 541.096 25.7733 544.552 27.48C548.051 29.144 550.739 31.768 552.616 35.352C554.536 38.936 555.496 43.5653 555.496 49.24C555.496 53.7627 554.899 57.7093 553.704 61.08C552.552 64.4507 550.291 67.2027 546.92 69.336C550.333 71.2133 552.787 74.2 554.28 78.296C555.773 82.3493 556.52 87.0427 556.52 92.376C556.52 97.624 555.667 102.253 553.96 106.264C552.296 110.275 549.821 113.411 546.536 115.672C543.293 117.891 539.283 119 534.504 119H518.12ZM531.944 105.304C536.125 105.304 538.877 104.067 540.2 101.592C541.523 99.0747 542.184 95.4907 542.184 90.84C542.184 86.104 541.523 82.52 540.2 80.088C538.877 77.6133 536.125 76.376 531.944 76.376V105.304ZM531.944 63.704C535.827 63.704 538.493 62.6373 539.944 60.504C541.437 58.3707 542.184 55.2133 542.184 51.032C542.184 46.808 541.416 43.6933 539.88 41.688C538.387 39.64 535.741 38.616 531.944 38.616V63.704ZM572.873 120.024C569.886 120.024 567.305 118.509 565.129 115.48C562.953 112.451 561.865 107.821 561.865 101.592C561.865 95.576 563.145 90.7333 565.705 87.064C568.308 83.3947 572.19 80.216 577.353 77.528C578.974 76.6747 580.34 75.9067 581.449 75.224C582.558 74.5413 583.241 73.9013 583.497 73.304V65.624C583.497 63.8747 583.284 62.3813 582.857 61.144C582.473 59.864 581.492 59.224 579.913 59.224C578.462 59.224 577.481 59.9067 576.969 61.272C576.457 62.5947 576.201 64.2587 576.201 66.264V69.592H563.273V66.648C563.273 62.808 564.02 59.5013 565.513 56.728C567.049 53.912 569.118 51.7573 571.721 50.264C574.366 48.728 577.353 47.96 580.681 47.96C583.881 47.96 586.654 48.7067 589.001 50.2C591.348 51.6507 593.161 53.6773 594.441 56.28C595.764 58.84 596.425 61.784 596.425 65.112V106.84C596.425 109.955 596.51 112.387 596.681 114.136C596.852 115.843 597.065 117.464 597.321 119H584.649C584.094 118.317 583.753 117.315 583.625 115.992C583.54 114.669 583.497 113.795 583.497 113.368H582.601C581.534 115.331 580.169 116.931 578.505 118.168C576.884 119.405 575.006 120.024 572.873 120.024ZM578.121 107.352C579.614 107.352 580.873 106.84 581.897 105.816C582.964 104.792 583.497 103.683 583.497 102.488V85.848C580.382 87.1707 578.1 89.176 576.649 91.864C575.241 94.5093 574.537 97.496 574.537 100.824C574.537 102.275 574.814 103.725 575.369 105.176C575.924 106.627 576.841 107.352 578.121 107.352ZM603.7 119V48.984H616.628V54.872C618.164 53.3787 619.892 51.864 621.812 50.328C623.732 48.7493 625.503 47.96 627.124 47.96C629.257 47.96 631.049 48.6427 632.5 50.008C633.951 51.3733 635.039 53.1013 635.764 55.192C636.489 57.2827 636.852 59.4373 636.852 61.656V119H623.924V64.216C623.924 62.8507 623.689 61.8907 623.22 61.336C622.751 60.7813 621.961 60.504 620.852 60.504C619.913 60.504 619.103 60.8453 618.42 61.528C617.78 62.168 617.183 62.936 616.628 63.832V119H603.7ZM652.544 120.024C650.411 120.024 648.597 119.363 647.104 118.04C645.611 116.717 644.48 115.011 643.712 112.92C642.944 110.787 642.56 108.589 642.56 106.328V61.656C642.56 59.3947 642.923 57.2187 643.648 55.128C644.416 53.0373 645.547 51.3307 647.04 50.008C648.533 48.6427 650.368 47.96 652.544 47.96C654.165 47.96 655.872 48.5147 657.664 49.624C659.456 50.7333 661.163 52.056 662.784 53.592V24.92H675.712V119H662.784V114.392C661.077 115.885 659.392 117.208 657.728 118.36C656.064 119.469 654.336 120.024 652.544 120.024ZM658.688 107.864C659.669 107.864 660.587 107.459 661.44 106.648C662.336 105.837 662.784 104.835 662.784 103.64V64.344C662.784 63.32 662.336 62.36 661.44 61.464C660.587 60.568 659.669 60.12 658.688 60.12C657.749 60.12 656.981 60.5253 656.384 61.336C655.787 62.104 655.488 63.1067 655.488 64.344V103.64C655.488 104.835 655.787 105.837 656.384 106.648C656.981 107.459 657.749 107.864 658.688 107.864ZM694.248 120.024C691.261 120.024 688.68 118.509 686.504 115.48C684.328 112.451 683.24 107.821 683.24 101.592C683.24 95.576 684.52 90.7333 687.08 87.064C689.683 83.3947 693.565 80.216 698.728 77.528C700.349 76.6747 701.715 75.9067 702.824 75.224C703.933 74.5413 704.616 73.9013 704.872 73.304V65.624C704.872 63.8747 704.659 62.3813 704.232 61.144C703.848 59.864 702.867 59.224 701.288 59.224C699.837 59.224 698.856 59.9067 698.344 61.272C697.832 62.5947 697.576 64.2587 697.576 66.264V69.592H684.648V66.648C684.648 62.808 685.395 59.5013 686.888 56.728C688.424 53.912 690.493 51.7573 693.096 50.264C695.741 48.728 698.728 47.96 702.056 47.96C705.256 47.96 708.029 48.7067 710.376 50.2C712.723 51.6507 714.536 53.6773 715.816 56.28C717.139 58.84 717.8 61.784 717.8 65.112V106.84C717.8 109.955 717.885 112.387 718.056 114.136C718.227 115.843 718.44 117.464 718.696 119H706.024C705.469 118.317 705.128 117.315 705 115.992C704.915 114.669 704.872 113.795 704.872 113.368H703.976C702.909 115.331 701.544 116.931 699.88 118.168C698.259 119.405 696.381 120.024 694.248 120.024ZM699.496 107.352C700.989 107.352 702.248 106.84 703.272 105.816C704.339 104.792 704.872 103.683 704.872 102.488V85.848C701.757 87.1707 699.475 89.176 698.024 91.864C696.616 94.5093 695.912 97.496 695.912 100.824C695.912 102.275 696.189 103.725 696.744 105.176C697.299 106.627 698.216 107.352 699.496 107.352ZM725.715 119V48.984H738.643V119H725.715ZM725.715 37.848V24.92H738.643V37.848H725.715Z" fill="black"/>
<defs>
<clipPath id="clip0_3_8">
<rect width="143" height="143" fill="white"/>
</clipPath>
</defs>
</svg>
