<svg width="745" height="146" viewBox="0 0 745 146" fill="none" xmlns="http://www.w3.org/2000/svg">
<rect width="744" height="144" transform="translate(1 1)" fill="white"/>
<path d="M71.2567 2.4399C57.6976 2.69781 44.3312 7.1836 33.2052 14.7741C21.1868 22.8556 11.818 34.7727 6.87456 48.3902C0.568645 65.2927 0.937646 84.5298 8.20343 101.099C15.0473 116.914 27.823 129.929 43.4199 137.16C59.5197 144.6 78.6928 145.639 95.6412 139.864C108.278 135.646 119.594 127.53 127.93 117.302C130.7 113.878 133.349 109.964 135.403 106.049C145.757 86.6824 146.253 62.7346 136.912 42.97C127.831 23.4187 109.456 8.7897 88.4339 4.10388C82.7731 2.81142 77.0264 2.35314 71.2567 2.4399Z" fill="white" stroke="black" stroke-width="4.56"/>
<path d="M72.8134 51.0625C65.5206 51.0729 54.0022 62.9696 43.1069 78.5154C38.6475 73.5826 34.4841 70.403 31.4576 70.403C25.5373 70.403 15.2869 82.5623 6.95312 96.268C11.9638 109.369 20.9681 120.672 32.7627 128.665C44.5573 136.659 58.5803 140.962 72.9577 141C87.3354 140.962 101.359 136.659 113.154 128.665C124.948 120.672 133.953 109.369 138.963 96.2671C130.63 82.5616 120.38 70.403 114.46 70.403C111.415 70.403 107.22 73.6174 102.73 78.6011C91.7494 63.0028 80.1335 51.0515 72.8134 51.0625Z" fill="black" stroke="black" stroke-width="5.66929"/>
<path fill-rule="evenodd" clip-rule="evenodd" d="M64.2639 118.385H70.8747V93.0029H64.373C63.7732 93.0029 63.2689 92.7917 62.8463 92.376C62.4238 91.9603 62.2194 91.4493 62.2194 90.8496C62.2194 90.2568 62.4305 89.7457 62.8463 89.33C63.2621 88.9144 63.7732 88.7031 64.373 88.7031H75.182V118.392H79.4892V109.432C79.4892 108.853 79.7006 108.348 80.1162 107.919C80.532 107.49 81.0431 107.279 81.6361 107.279C82.2357 107.279 82.7469 107.49 83.1627 107.905C83.5783 108.328 83.7897 108.832 83.7897 109.432V120.546C83.7897 121.145 83.5782 121.656 83.1627 122.079C82.7469 122.494 82.2426 122.699 81.6361 122.699H64.264C63.6642 122.699 63.1599 122.481 62.7442 122.052C62.3216 121.615 62.1172 121.098 62.1172 120.498C62.1172 119.919 62.3284 119.421 62.7442 119.006C63.1599 118.597 63.671 118.392 64.264 118.392L64.2639 118.385Z" fill="white"/>
<path fill-rule="evenodd" clip-rule="evenodd" d="M62.1176 40.541V14.7904C62.1176 13.6661 62.5265 12.6917 63.3511 11.874C64.1689 11.0563 65.1435 10.6406 66.2748 10.6406H79.701C80.8118 10.6406 81.7728 11.0495 82.5838 11.874C83.3948 12.6917 83.7969 13.6661 83.7969 14.7904V40.541C83.7969 41.6858 83.3879 42.6602 82.5838 43.4711C81.7728 44.282 80.7913 44.684 79.6464 44.684H66.2748C65.1163 44.684 64.1281 44.282 63.3238 43.4711C62.5197 42.6602 62.1243 41.6858 62.1243 40.541H62.1176ZM79.5442 40.3842V15.0015H66.4249V40.3841L79.5442 40.3842Z" fill="black"/>
<path d="M182.912 121.524C178.987 121.524 175.637 120.649 172.864 118.9C170.133 117.108 168.043 114.676 166.592 111.604C165.184 108.532 164.48 105.055 164.48 101.172V45.748C164.48 41.908 165.205 38.452 166.656 35.38C168.149 32.308 170.283 29.876 173.056 28.084C175.829 26.292 179.115 25.396 182.912 25.396C185.771 25.396 188.331 25.9293 190.592 26.996C192.853 28.0627 194.773 29.5347 196.352 31.412C197.973 33.2467 199.211 35.4013 200.064 37.876C200.917 40.308 201.344 42.932 201.344 45.748V58.676H188.416V45.748C188.416 43.7853 188.011 42.1427 187.2 40.82C186.389 39.4973 185.045 38.836 183.168 38.836C181.461 38.836 180.224 39.5187 179.456 40.884C178.688 42.2493 178.304 43.8707 178.304 45.748V101.172C178.304 103.049 178.709 104.671 179.52 106.036C180.373 107.401 181.589 108.084 183.168 108.084C185.088 108.084 186.432 107.423 187.2 106.1C188.011 104.777 188.416 103.135 188.416 101.172V88.244H201.344V101.172C201.344 105.012 200.597 108.468 199.104 111.54C197.611 114.612 195.477 117.044 192.704 118.836C189.973 120.628 186.709 121.524 182.912 121.524ZM225.011 121.396C219.848 121.396 215.795 119.668 212.851 116.212C209.907 112.713 208.435 108.297 208.435 102.964V67.892C208.435 62.5587 209.907 58.164 212.851 54.708C215.795 51.2093 219.848 49.46 225.011 49.46C230.131 49.46 234.163 51.2093 237.107 54.708C240.094 58.164 241.587 62.5587 241.587 67.892V102.964C241.587 108.297 240.094 112.713 237.107 116.212C234.163 119.668 230.131 121.396 225.011 121.396ZM225.011 110.132C226.675 110.132 227.827 109.471 228.467 108.148C229.107 106.783 229.427 105.055 229.427 102.964V67.892C229.427 65.7587 229.107 64.0307 228.467 62.708C227.827 61.3853 226.675 60.724 225.011 60.724C223.347 60.724 222.195 61.3853 221.555 62.708C220.915 64.0307 220.595 65.7587 220.595 67.892V102.964C220.595 105.097 220.915 106.825 221.555 108.148C222.195 109.471 223.347 110.132 225.011 110.132ZM256.669 121.524C254.536 121.524 252.722 120.863 251.229 119.54C249.736 118.217 248.605 116.511 247.837 114.42C247.069 112.287 246.685 110.089 246.685 107.828V63.156C246.685 60.8947 247.048 58.7187 247.773 56.628C248.541 54.5373 249.672 52.8307 251.165 51.508C252.658 50.1427 254.493 49.46 256.669 49.46C258.29 49.46 259.997 50.0147 261.789 51.124C263.581 52.2333 265.288 53.556 266.909 55.092V26.42H279.837V120.5H266.909V115.892C265.202 117.385 263.517 118.708 261.853 119.86C260.189 120.969 258.461 121.524 256.669 121.524ZM262.813 109.364C263.794 109.364 264.712 108.959 265.565 108.148C266.461 107.337 266.909 106.335 266.909 105.14V65.844C266.909 64.82 266.461 63.86 265.565 62.964C264.712 62.068 263.794 61.62 262.813 61.62C261.874 61.62 261.106 62.0253 260.509 62.836C259.912 63.604 259.613 64.6067 259.613 65.844V105.14C259.613 106.335 259.912 107.337 260.509 108.148C261.106 108.959 261.874 109.364 262.813 109.364ZM304.325 121.524C299.162 121.524 295.088 119.753 292.101 116.212C289.157 112.628 287.685 108.255 287.685 103.092V67.892C287.685 62.4307 289.157 57.9933 292.101 54.58C295.045 51.1667 299.162 49.46 304.453 49.46C307.909 49.46 310.874 50.2493 313.349 51.828C315.866 53.4067 317.786 55.5613 319.109 58.292C320.432 60.98 321.093 64.052 321.093 67.508V87.86H299.717V103.092C299.717 104.841 300.101 106.463 300.869 107.956C301.68 109.407 302.874 110.132 304.453 110.132C306.117 110.132 307.29 109.449 307.973 108.084C308.698 106.719 309.061 105.055 309.061 103.092V95.412H321.093V103.476C321.093 108.895 319.621 113.268 316.677 116.596C313.776 119.881 309.658 121.524 304.325 121.524ZM299.717 77.748H309.061V67.892C309.061 65.972 308.72 64.308 308.037 62.9C307.397 61.4493 306.202 60.724 304.453 60.724C302.832 60.724 301.637 61.4707 300.869 62.964C300.101 64.4147 299.717 66.0573 299.717 67.892V77.748ZM326.575 120.5V50.484H339.503V58.292C339.759 56.5853 340.548 55.0707 341.871 53.748C343.194 52.4253 344.794 51.38 346.671 50.612C348.591 49.844 350.511 49.46 352.431 49.46V63.796C351.876 63.5827 351.279 63.4547 350.639 63.412C350.042 63.3267 349.444 63.284 348.847 63.284C346.031 63.284 343.77 64.052 342.063 65.588C340.356 67.124 339.503 69.2147 339.503 71.86V120.5H326.575ZM358.87 120.5V26.42H372.95C377.387 26.42 381.142 27.1453 384.214 28.596C387.286 30.0467 389.761 32.5213 391.638 36.02C393.515 39.5187 394.859 44.3187 395.67 50.42C396.523 56.5213 396.95 64.2227 396.95 73.524C396.95 82.868 396.523 90.5907 395.67 96.692C394.859 102.751 393.515 107.529 391.638 111.028C389.761 114.484 387.286 116.937 384.214 118.388C381.142 119.796 377.387 120.5 372.95 120.5H358.87ZM372.694 106.676C376.107 106.676 378.518 105.332 379.926 102.644C381.334 99.956 382.187 96.116 382.486 91.124C382.785 86.132 382.934 80.2013 382.934 73.332C382.934 66.3773 382.785 60.4467 382.486 55.54C382.187 50.5907 381.313 46.8147 379.862 44.212C378.454 41.5667 376.065 40.244 372.694 40.244V106.676ZM420.511 121.396C415.348 121.396 411.295 119.668 408.351 116.212C405.407 112.713 403.935 108.297 403.935 102.964V67.892C403.935 62.5587 405.407 58.164 408.351 54.708C411.295 51.2093 415.348 49.46 420.511 49.46C425.631 49.46 429.663 51.2093 432.607 54.708C435.594 58.164 437.087 62.5587 437.087 67.892V102.964C437.087 108.297 435.594 112.713 432.607 116.212C429.663 119.668 425.631 121.396 420.511 121.396ZM420.511 110.132C422.175 110.132 423.327 109.471 423.967 108.148C424.607 106.783 424.927 105.055 424.927 102.964V67.892C424.927 65.7587 424.607 64.0307 423.967 62.708C423.327 61.3853 422.175 60.724 420.511 60.724C418.847 60.724 417.695 61.3853 417.055 62.708C416.415 64.0307 416.095 65.7587 416.095 67.892V102.964C416.095 105.097 416.415 106.825 417.055 108.148C417.695 109.471 418.847 110.132 420.511 110.132ZM442.441 144.564C441.246 144.564 440.158 144.479 439.177 144.308C438.196 144.18 437.406 143.967 436.809 143.668V131.764C437.065 131.935 437.556 132.084 438.281 132.212C439.006 132.34 439.71 132.404 440.393 132.404C441.716 132.404 442.654 131.913 443.209 130.932C443.764 129.951 444.084 128.671 444.169 127.092C444.297 125.513 444.361 123.871 444.361 122.164V50.484H457.289V122.292C457.289 126.687 456.884 130.548 456.073 133.876C455.305 137.247 453.854 139.871 451.721 141.748C449.588 143.625 446.494 144.564 442.441 144.564ZM444.361 39.348V26.42H457.289V39.348H444.361ZM480.261 121.396C475.098 121.396 471.045 119.668 468.101 116.212C465.157 112.713 463.685 108.297 463.685 102.964V67.892C463.685 62.5587 465.157 58.164 468.101 54.708C471.045 51.2093 475.098 49.46 480.261 49.46C485.381 49.46 489.413 51.2093 492.357 54.708C495.344 58.164 496.837 62.5587 496.837 67.892V102.964C496.837 108.297 495.344 112.713 492.357 116.212C489.413 119.668 485.381 121.396 480.261 121.396ZM480.261 110.132C481.925 110.132 483.077 109.471 483.717 108.148C484.357 106.783 484.677 105.055 484.677 102.964V67.892C484.677 65.7587 484.357 64.0307 483.717 62.708C483.077 61.3853 481.925 60.724 480.261 60.724C478.597 60.724 477.445 61.3853 476.805 62.708C476.165 64.0307 475.845 65.7587 475.845 67.892V102.964C475.845 105.097 476.165 106.825 476.805 108.148C477.445 109.471 478.597 110.132 480.261 110.132Z" fill="black"/>
<path d="M520.12 120.5V26.42H534.2C538.979 26.42 543.096 27.2733 546.552 28.98C550.051 30.644 552.739 33.268 554.616 36.852C556.536 40.436 557.496 45.0653 557.496 50.74C557.496 55.2627 556.899 59.2093 555.704 62.58C554.552 65.9507 552.291 68.7027 548.92 70.836C552.333 72.7133 554.787 75.7 556.28 79.796C557.773 83.8493 558.52 88.5427 558.52 93.876C558.52 99.124 557.667 103.753 555.96 107.764C554.296 111.775 551.821 114.911 548.536 117.172C545.293 119.391 541.283 120.5 536.504 120.5H520.12ZM533.944 106.804C538.125 106.804 540.877 105.567 542.2 103.092C543.523 100.575 544.184 96.9907 544.184 92.34C544.184 87.604 543.523 84.02 542.2 81.588C540.877 79.1133 538.125 77.876 533.944 77.876V106.804ZM533.944 65.204C537.827 65.204 540.493 64.1373 541.944 62.004C543.437 59.8707 544.184 56.7133 544.184 52.532C544.184 48.308 543.416 45.1933 541.88 43.188C540.387 41.14 537.741 40.116 533.944 40.116V65.204ZM574.873 121.524C571.886 121.524 569.305 120.009 567.129 116.98C564.953 113.951 563.865 109.321 563.865 103.092C563.865 97.076 565.145 92.2333 567.705 88.564C570.308 84.8947 574.19 81.716 579.353 79.028C580.974 78.1747 582.34 77.4067 583.449 76.724C584.558 76.0413 585.241 75.4013 585.497 74.804V67.124C585.497 65.3747 585.284 63.8813 584.857 62.644C584.473 61.364 583.492 60.724 581.913 60.724C580.462 60.724 579.481 61.4067 578.969 62.772C578.457 64.0947 578.201 65.7587 578.201 67.764V71.092H565.273V68.148C565.273 64.308 566.02 61.0013 567.513 58.228C569.049 55.412 571.118 53.2573 573.721 51.764C576.366 50.228 579.353 49.46 582.681 49.46C585.881 49.46 588.654 50.2067 591.001 51.7C593.348 53.1507 595.161 55.1773 596.441 57.78C597.764 60.34 598.425 63.284 598.425 66.612V108.34C598.425 111.455 598.51 113.887 598.681 115.636C598.852 117.343 599.065 118.964 599.321 120.5H586.649C586.094 119.817 585.753 118.815 585.625 117.492C585.54 116.169 585.497 115.295 585.497 114.868H584.601C583.534 116.831 582.169 118.431 580.505 119.668C578.884 120.905 577.006 121.524 574.873 121.524ZM580.121 108.852C581.614 108.852 582.873 108.34 583.897 107.316C584.964 106.292 585.497 105.183 585.497 103.988V87.348C582.382 88.6707 580.1 90.676 578.649 93.364C577.241 96.0093 576.537 98.996 576.537 102.324C576.537 103.775 576.814 105.225 577.369 106.676C577.924 108.127 578.841 108.852 580.121 108.852ZM605.7 120.5V50.484H618.628V56.372C620.164 54.8787 621.892 53.364 623.812 51.828C625.732 50.2493 627.503 49.46 629.124 49.46C631.257 49.46 633.049 50.1427 634.5 51.508C635.951 52.8733 637.039 54.6013 637.764 56.692C638.489 58.7827 638.852 60.9373 638.852 63.156V120.5H625.924V65.716C625.924 64.3507 625.689 63.3907 625.22 62.836C624.751 62.2813 623.961 62.004 622.852 62.004C621.913 62.004 621.103 62.3453 620.42 63.028C619.78 63.668 619.183 64.436 618.628 65.332V120.5H605.7ZM654.544 121.524C652.411 121.524 650.597 120.863 649.104 119.54C647.611 118.217 646.48 116.511 645.712 114.42C644.944 112.287 644.56 110.089 644.56 107.828V63.156C644.56 60.8947 644.923 58.7187 645.648 56.628C646.416 54.5373 647.547 52.8307 649.04 51.508C650.533 50.1427 652.368 49.46 654.544 49.46C656.165 49.46 657.872 50.0147 659.664 51.124C661.456 52.2333 663.163 53.556 664.784 55.092V26.42H677.712V120.5H664.784V115.892C663.077 117.385 661.392 118.708 659.728 119.86C658.064 120.969 656.336 121.524 654.544 121.524ZM660.688 109.364C661.669 109.364 662.587 108.959 663.44 108.148C664.336 107.337 664.784 106.335 664.784 105.14V65.844C664.784 64.82 664.336 63.86 663.44 62.964C662.587 62.068 661.669 61.62 660.688 61.62C659.749 61.62 658.981 62.0253 658.384 62.836C657.787 63.604 657.488 64.6067 657.488 65.844V105.14C657.488 106.335 657.787 107.337 658.384 108.148C658.981 108.959 659.749 109.364 660.688 109.364ZM696.248 121.524C693.261 121.524 690.68 120.009 688.504 116.98C686.328 113.951 685.24 109.321 685.24 103.092C685.24 97.076 686.52 92.2333 689.08 88.564C691.683 84.8947 695.565 81.716 700.728 79.028C702.349 78.1747 703.715 77.4067 704.824 76.724C705.933 76.0413 706.616 75.4013 706.872 74.804V67.124C706.872 65.3747 706.659 63.8813 706.232 62.644C705.848 61.364 704.867 60.724 703.288 60.724C701.837 60.724 700.856 61.4067 700.344 62.772C699.832 64.0947 699.576 65.7587 699.576 67.764V71.092H686.648V68.148C686.648 64.308 687.395 61.0013 688.888 58.228C690.424 55.412 692.493 53.2573 695.096 51.764C697.741 50.228 700.728 49.46 704.056 49.46C707.256 49.46 710.029 50.2067 712.376 51.7C714.723 53.1507 716.536 55.1773 717.816 57.78C719.139 60.34 719.8 63.284 719.8 66.612V108.34C719.8 111.455 719.885 113.887 720.056 115.636C720.227 117.343 720.44 118.964 720.696 120.5H708.024C707.469 119.817 707.128 118.815 707 117.492C706.915 116.169 706.872 115.295 706.872 114.868H705.976C704.909 116.831 703.544 118.431 701.88 119.668C700.259 120.905 698.381 121.524 696.248 121.524ZM701.496 108.852C702.989 108.852 704.248 108.34 705.272 107.316C706.339 106.292 706.872 105.183 706.872 103.988V87.348C703.757 88.6707 701.475 90.676 700.024 93.364C698.616 96.0093 697.912 98.996 697.912 102.324C697.912 103.775 698.189 105.225 698.744 106.676C699.299 108.127 700.216 108.852 701.496 108.852ZM727.715 120.5V50.484H740.643V120.5H727.715ZM727.715 39.348V26.42H740.643V39.348H727.715Z" fill="black"/>
</svg>
