<?xml version="1.0" encoding="UTF-8" standalone="no"?>
<!-- Created with Inkscape (http://www.inkscape.org/) -->

<svg
   width="194.40401mm"
   height="44.742001mm"
   viewBox="0 0 194.404 44.742001"
   version="1.1"
   id="svg1"
   xml:space="preserve"
   sodipodi:docname="Logo.svg"
   inkscape:version="1.3.2 (091e20e, 2023-11-25, custom)"
   xmlns:inkscape="http://www.inkscape.org/namespaces/inkscape"
   xmlns:sodipodi="http://sodipodi.sourceforge.net/DTD/sodipodi-0.dtd"
   xmlns="http://www.w3.org/2000/svg"
   xmlns:svg="http://www.w3.org/2000/svg"><sodipodi:namedview
     id="namedview1"
     pagecolor="#ffffff"
     bordercolor="#000000"
     borderopacity="0.25"
     inkscape:showpageshadow="2"
     inkscape:pageopacity="0.0"
     inkscape:pagecheckerboard="0"
     inkscape:deskcolor="#d1d1d1"
     inkscape:document-units="mm"
     inkscape:zoom="2.6333614"
     inkscape:cx="399.67928"
     inkscape:cy="128.16319"
     inkscape:window-width="3840"
     inkscape:window-height="2054"
     inkscape:window-x="-11"
     inkscape:window-y="-11"
     inkscape:window-maximized="1"
     inkscape:current-layer="layer1" /><defs
     id="defs1"><rect
       x="215.69389"
       y="239.99744"
       width="498.22253"
       height="112.40387"
       id="rect5" /><rect
       x="273.41479"
       y="267.33893"
       width="121.51769"
       height="44.050163"
       id="rect4" /><linearGradient
       id="swatch8"
       inkscape:swatch="solid"><stop
         style="stop-color:#000000;stop-opacity:1;"
         offset="0"
         id="stop8" /></linearGradient></defs><g
     inkscape:label="Layer 1"
     inkscape:groupmode="layer"
     id="layer1"
     transform="translate(-16.381522,-13.902767)"><text
       xml:space="preserve"
       transform="scale(0.26458333)"
       id="text4"
       style="white-space:pre;shape-inside:url(#rect4);display:inline;fill:#000000;stroke-width:1.61008;stroke-dasharray:none" /><g
       id="layer3"
       inkscape:label="Layer 2"
       transform="matrix(0.43794727,0,0,0.47558344,-16.961704,-24.024026)"
       style="stroke-width:1.00057;stroke-dasharray:none"><circle
         style="opacity:1;fill:#ffffff;fill-opacity:1;stroke:#000000;stroke-width:1.00057;stroke-dasharray:none;stroke-opacity:1"
         id="path9"
         cx="119.96998"
         cy="122.18312"
         r="39.709572" /></g><g
       inkscape:label="Layer 1"
       id="layer1-7"
       transform="matrix(0.43794727,0,0,0.47558344,-16.961704,-24.024026)"
       style="stroke-width:1.00057;stroke-dasharray:none"><path
         id="path9-6"
         style="fill:#000000;fill-opacity:1;stroke:#000000;stroke-width:1.00057;stroke-dasharray:none;stroke-opacity:1"
         d="m 119.88859,109.87805 c -4.10047,0.006 -10.57689,6.88635 -16.70286,15.87706 -2.50739,-2.85278 -4.848323,-4.6917 -6.549983,-4.6917 -3.328764,0 -9.092194,7.03221 -13.77797,14.95878 a 39.709572,39.709572 0 0 0 37.111943,25.87025 39.709572,39.709572 0 0 0 37.11246,-25.87077 c -4.68562,-7.92643 -10.44873,-14.95826 -13.77745,-14.95826 -1.71191,0 -4.07045,1.85904 -6.59495,4.74131 -6.1742,-9.02111 -12.70539,-15.93305 -16.82119,-15.92667 z" /></g><g
       id="layer4"
       inkscape:label="Layer 3"
       transform="matrix(0.43794727,0,0,0.47558344,-16.961704,-24.024026)"
       style="stroke-width:1.00057;stroke-dasharray:none"><path
         id="path19"
         d="m 115.08417,147.73732 h 3.71704 v -14.27406 h -3.6557 c -0.33724,0 -0.62076,-0.11873 -0.85837,-0.35254 -0.23756,-0.23375 -0.35252,-0.52114 -0.35252,-0.85836 0,-0.33338 0.11871,-0.62079 0.35252,-0.85454 0.23376,-0.23374 0.52113,-0.35254 0.85837,-0.35254 h 6.0775 v 16.69594 h 2.42178 v -5.03905 c 0,-0.32572 0.11887,-0.60929 0.35256,-0.8507 0.23376,-0.24142 0.52114,-0.3602 0.85455,-0.3602 0.33718,0 0.62461,0.11873 0.85836,0.35253 0.23371,0.2376 0.35253,0.52115 0.35253,0.85837 v 6.24994 c 0,0.33722 -0.11887,0.62461 -0.35253,0.86219 -0.23376,0.23375 -0.51734,0.34871 -0.85836,0.34871 h -9.76768 c -0.3372,0 -0.62077,-0.12257 -0.85453,-0.36404 -0.23757,-0.24525 -0.35252,-0.53648 -0.35252,-0.87369 0,-0.32571 0.11873,-0.60545 0.35252,-0.8392 0.23376,-0.22992 0.52113,-0.34488 0.85453,-0.34488 v -0.004 z"
         style="clip-rule:evenodd;fill:#ffffff;fill-rule:evenodd;stroke-width:1.00057;stroke-linejoin:round;stroke-miterlimit:1.41421;stroke-dasharray:none" /><path
         id="path17"
         d="M 113.87535,103.9609 V 89.479904 c 0,-0.632273 0.22991,-1.180255 0.69355,-1.640085 0.45984,-0.459831 1.00782,-0.693587 1.64393,-0.693587 h 7.549 c 0.62461,0 1.16491,0.229923 1.62091,0.693587 0.45599,0.45983 0.68207,1.007812 0.68207,1.640085 V 103.9609 c 0,0.64377 -0.22993,1.19174 -0.68207,1.64775 -0.456,0.45601 -1.00783,0.68207 -1.65158,0.68207 h -7.51833 c -0.65143,0 -1.20705,-0.22606 -1.65926,-0.68207 -0.45214,-0.45601 -0.67443,-1.00398 -0.67443,-1.64775 h -0.004 z m 9.79837,-0.0882 V 89.598599 h -7.37654 v 14.274071 z"
         style="clip-rule:evenodd;fill:#000000;fill-rule:evenodd;stroke-width:1.00057;stroke-linejoin:round;stroke-miterlimit:1.41421;stroke-dasharray:none" /></g><text
       xml:space="preserve"
       transform="matrix(0.62003533,0,0,1.0962706,-79.194608,-252.91755)"
       id="text5"
       style="white-space:pre;shape-inside:url(#rect5);display:inline;fill:#000000;stroke-width:1.61008;stroke-dasharray:none"><tspan
         x="215.69336"
         y="276.33521"
         id="tspan4"><tspan
           style="font-weight:bold;font-stretch:condensed;font-size:38.8964px;font-family:'Agency FB';-inkscape-font-specification:'Agency FB, Bold Condensed'"
           id="tspan2">Coder Dojo BANDAI</tspan></tspan></text></g></svg>
